<svg xmlns="http://www.w3.org/2000/svg" viewBox="0 0 773 773"><defs><style>.cls-1{fill:#6637af;}.cls-2{fill:none;}.cls-3,.cls-4{fill:#b7a1db;}.cls-4{stroke:#b7a1db;stroke-linecap:round;stroke-linejoin:round;stroke-width:5.67px;}</style></defs><g id="Layer_2" data-name="Layer 2"><g id="Layer_1-2" data-name="Layer 1"><circle class="cls-1" cx="386.5" cy="386.5" r="386.5"/><line class="cls-2" x1="167.46" y1="394.32" x2="167.46" y2="542.78"/><path class="cls-3" d="M395.47,134.93H238.56a9.46,9.46,0,0,0-9.43,9.43v68.56H248V153.8H386.35V287.44H248V269.52a22.31,22.31,0,0,1-6.6.94H229.12v26.41a9.46,9.46,0,0,0,9.44,9.44h69.18v26.1L275,364.8a9.1,9.1,0,0,0,0,13.2c3.77,3.46,9.74,3.78,13.2,0l28.62-28.61L345.48,378a9.12,9.12,0,0,0,13.21,0,9.12,9.12,0,0,0,0-13.2l-32.4-32.39v-26.1h69.18a9.46,9.46,0,0,0,9.44-9.44V144.36a9.27,9.27,0,0,0-9.44-9.43Z"/><path class="cls-3" d="M245.79,250.65l5.66-14.78a4.89,4.89,0,0,0-4.4-6.6H142.65a32.65,32.65,0,0,0-32.39,28.93l-4.09,39.62c-.31,3.77,2.2,7.55,6,8.17,4.4.95,10.06,1.58,15.72,2.21l3.77,62.89a10,10,0,0,0,10.07,9.43h30.5a10,10,0,0,0,10.06-9.43l5.35-107.86a9.79,9.79,0,0,1,9.75-9.75h44a4.08,4.08,0,0,0,4.4-2.83Z"/><path class="cls-3" d="M189.82,187.13a33,33,0,1,1-33-33,33,33,0,0,1,33,33"/><path class="cls-3" d="M305.22,239.24H295a2.64,2.64,0,0,0-2.32,2.87v27.45h14.84V242.11a2.65,2.65,0,0,0-2.32-2.87Z"/><path class="cls-3" d="M275,224.36h-10.2a2.65,2.65,0,0,0-2.32,2.87v42.33h14.84V227.23a2.64,2.64,0,0,0-2.32-2.87Z"/><path class="cls-3" d="M335.5,209.88H325.29a2.63,2.63,0,0,0-2.31,2.87v56.81h14.83V212.75a2.63,2.63,0,0,0-2.31-2.87Z"/><path class="cls-3" d="M365.76,180.53h-10.2a2.64,2.64,0,0,0-2.32,2.87v86.16h14.84V183.4a2.63,2.63,0,0,0-2.32-2.87Z"/><path class="cls-3" d="M657.42,392.17H500.51a9.46,9.46,0,0,0-9.44,9.43v68.55h18.87V411H648.3V544.68H509.94V526.76a22.66,22.66,0,0,1-6.61.94H491.07v26.41a9.47,9.47,0,0,0,9.43,9.44h69.18v26.1L537,622a9.12,9.12,0,0,0,0,13.2c3.77,3.46,9.75,3.78,13.21,0l28.61-28.61,28.62,28.61a9.12,9.12,0,0,0,13.21,0,9.11,9.11,0,0,0,0-13.2l-32.39-32.39v-26.1h69.18a9.46,9.46,0,0,0,9.43-9.44V401.6a9.26,9.26,0,0,0-9.43-9.43Z"/><path class="cls-3" d="M507.74,507.89l5.66-14.78A4.9,4.9,0,0,0,509,486.5H404.6a32.65,32.65,0,0,0-32.39,28.93l-4.09,39.63a7.59,7.59,0,0,0,6,8.17c4.4.95,10.07,1.58,15.73,2.2l3.77,62.9a10,10,0,0,0,10.06,9.43h30.5a10,10,0,0,0,10.07-9.43l5.34-107.86a9.8,9.8,0,0,1,9.75-9.75h44a4.1,4.1,0,0,0,4.41-2.83Z"/><path class="cls-3" d="M451.76,444.37a33,33,0,1,1-33-33,33,33,0,0,1,33,33"/><path class="cls-3" d="M567.16,496.48H557a2.63,2.63,0,0,0-2.31,2.87V526.8h14.83V499.35a2.63,2.63,0,0,0-2.32-2.87Z"/><path class="cls-3" d="M536.9,481.59H526.7a2.64,2.64,0,0,0-2.32,2.87V526.8h14.83V484.46a2.64,2.64,0,0,0-2.31-2.87Z"/><path class="cls-3" d="M597.44,467.12h-10.2a2.65,2.65,0,0,0-2.32,2.87V526.8h14.84V470a2.63,2.63,0,0,0-2.32-2.87Z"/><path class="cls-3" d="M627.71,437.76H617.5a2.64,2.64,0,0,0-2.31,2.87V526.8H630V440.63a2.64,2.64,0,0,0-2.31-2.87Z"/><line class="cls-4" x1="166.53" y1="541.42" x2="166.53" y2="405.39"/><line class="cls-4" x1="330.4" y1="541.42" x2="166.53" y2="541.42"/></g></g></svg>