<svg xmlns="http://www.w3.org/2000/svg" viewBox="0 0 773 773"><defs><style>.cls-1{fill:#347f93;}.cls-2{fill:#d3ebf2;}</style></defs><g id="Layer_2" data-name="Layer 2"><g id="Layer_1-2" data-name="Layer 1"><circle class="cls-1" cx="386.5" cy="386.5" r="386.5"/><path class="cls-2" d="M499.15,283.83v-26.2a10.48,10.48,0,0,0-20.95,0v26.2a10.48,10.48,0,0,0,20.95,0Z"/><path class="cls-2" d="M448.86,310.54a10.34,10.34,0,0,0,7.34-3.14,10.13,10.13,0,0,0,0-14.67L437.86,274.4a10.37,10.37,0,0,0-14.67,14.66l18.34,18.34c2.09,2.62,4.71,3.14,7.33,3.14Z"/><path class="cls-2" d="M535.82,307.92l18.34-18.33a10.37,10.37,0,1,0-14.67-14.67l-18.34,18.34a10.12,10.12,0,0,0,0,14.66,10.35,10.35,0,0,0,7.34,3.15c2.61-.52,5.23-1.05,7.33-3.15Z"/><path class="cls-2" d="M414.29,354c-3.15,3.15-3.15,7.86,0,11.53,1.57,1.57,33.52,35.62,74.38,35.62s72.82-34.05,74.39-35.62c3.15-3.14,3.15-7.86,0-11.53-1.57-1.57-33.52-35.62-74.39-35.62S415.86,352.45,414.29,354Zm93.77-15.71c16.24,5.24,29.86,15.19,37.19,21.48-7.33,6.28-21,16.24-37.19,21.48,5.76-5.24,9.95-13.1,9.95-21.48a30.79,30.79,0,0,0-9.95-21.48Zm-38.25,0c-5.76,5.24-9.95,13.09-9.95,21.48a27.93,27.93,0,0,0,9.95,21.48C453.57,376,440,366.08,432.62,359.79,440,353.5,453.57,343,469.81,338.31Z"/><path class="cls-2" d="M619.64,181.67H358.23a15.76,15.76,0,0,0-15.71,15.72v114.2H374V213.11H604.44V435.75H374V405.88a37.18,37.18,0,0,1-11,1.58H342.51v44a15.77,15.77,0,0,0,15.72,15.72H473.48v43.48L419,564.61c-6.28,6.29-6.28,16.24,0,22s16.24,6.29,22,0l47.67-47.67,47.68,47.67a15.18,15.18,0,0,0,22,0c6.29-6.28,6.29-16.23,0-22l-54-53.95V467.18H619.64a15.77,15.77,0,0,0,15.72-15.72V197.39a15.44,15.44,0,0,0-15.72-15.72Z"/><path class="cls-2" d="M370.28,374.45l9.43-24.62a8.15,8.15,0,0,0-7.33-11H198.46a54.39,54.39,0,0,0-54,48.2l-6.81,66c-.52,6.29,3.67,12.58,9.95,13.62,7.34,1.57,16.77,2.62,26.19,3.67l6.29,104.77a16.69,16.69,0,0,0,16.77,15.72H247.7a16.68,16.68,0,0,0,16.76-15.72l8.91-179.68a16.32,16.32,0,0,1,16.24-16.24H363a6.8,6.8,0,0,0,7.33-4.72Z"/><path class="cls-2" d="M277,268.64a55,55,0,1,1-55-55,55,55,0,0,1,55,55"/></g></g></svg>