<svg xmlns="http://www.w3.org/2000/svg" viewBox="0 0 773 773"><defs><style>.cls-1{fill:#e09532;}.cls-2{fill:none;}.cls-3,.cls-4{fill:#f7edc4;}.cls-3{fill-rule:evenodd;}</style></defs><g id="Layer_2" data-name="Layer 2"><g id="Layer_1-2" data-name="Layer 1"><circle class="cls-1" cx="386.5" cy="386.5" r="386.5"/><line class="cls-2" x1="167.46" y1="394.32" x2="167.46" y2="542.78"/><path class="cls-3" d="M579,256.73H520.12a1.86,1.86,0,0,0-1.86,2c.24,2.7.38,6.57.41,8.89a1.87,1.87,0,0,0,1.87,1.83h51.52a3.36,3.36,0,0,1,3.36,3.4V389a3.43,3.43,0,0,1-3.4,3.41H361.61a3.42,3.42,0,0,1-3.4-3.41V275.51a6.06,6.06,0,0,1,6.05-6.05h47.58a2.19,2.19,0,0,0,2.21-2.16c0-2.23.17-5.65.38-8.2a2.19,2.19,0,0,0-2.2-2.37H354.65a8.52,8.52,0,0,0-8.5,8.5V422.77a8.52,8.52,0,0,0,8.5,8.5H579a8.52,8.52,0,0,0,8.5-8.5V265.23a8.52,8.52,0,0,0-8.5-8.5ZM462.82,225.6a40.56,40.56,0,1,0,32.57,69,40.94,40.94,0,0,0,3.58-4.09l-33.59-22.23A2.72,2.72,0,0,1,464,266V226.68a1.08,1.08,0,0,0-.35-.81,1.05,1.05,0,0,0-.83-.27Zm42.89,43.08H480.17a1.35,1.35,0,0,0-.74,2.48l21.3,14.09a1.29,1.29,0,0,0,1.08.18,1.34,1.34,0,0,0,.86-.68,40.21,40.21,0,0,0,4.38-14.58,1.31,1.31,0,0,0-.34-1.05,1.33,1.33,0,0,0-1-.44Zm-10.32-31.39a40.4,40.4,0,0,0-24.8-11.69,1,1,0,0,0-.82.27,1.06,1.06,0,0,0-.36.81v33.89a2.71,2.71,0,0,0,2.71,2.7H506a1.07,1.07,0,0,0,1.07-1.18,40.4,40.4,0,0,0-11.69-24.8Zm-4.66,96H504.9a3.83,3.83,0,0,1,3.83,3.82V379a3.83,3.83,0,0,1-3.83,3.82H490.73a3.83,3.83,0,0,1-3.82-3.82V337.15a3.83,3.83,0,0,1,3.82-3.82Zm-31-14h14.17a3.83,3.83,0,0,1,3.83,3.82V379a3.84,3.84,0,0,1-3.83,3.83H459.74a3.83,3.83,0,0,1-3.82-3.83V323.18a3.83,3.83,0,0,1,3.82-3.82Zm-31,31.48h14.17a3.84,3.84,0,0,1,3.83,3.83V379a3.83,3.83,0,0,1-3.83,3.82H428.75a3.83,3.83,0,0,1-3.83-3.82V354.67A3.84,3.84,0,0,1,428.75,350.84Zm-15,102.5h23a6.5,6.5,0,0,0,6.44-6.49v-5h47.34v5a6.5,6.5,0,0,0,6.48,6.49h23a25,25,0,0,1,17.62,6.91,3.26,3.26,0,0,1-2.23,5.64h-137a3.26,3.26,0,0,1-2.19-5.64,24.9,24.9,0,0,1,17.62-6.91Zm53.08-32.23a5.38,5.38,0,1,1,5.38-5.38A5.39,5.39,0,0,1,466.82,421.11Z"/><rect class="cls-1" x="336.52" y="302.41" width="32.57" height="70.29"/><path class="cls-4" d="M379.16,350.84,387.51,329a7.23,7.23,0,0,0-6.5-9.74H226.94A48.2,48.2,0,0,0,179.14,362l-6,58.47c-.46,5.57,3.25,11.14,8.82,12.07,6.49,1.39,14.85,2.32,23.2,3.25l5.57,92.81a14.78,14.78,0,0,0,14.85,13.93h45a14.8,14.8,0,0,0,14.86-13.93l7.88-159.17A14.46,14.46,0,0,1,307.69,355h65a6,6,0,0,0,6.49-4.18Z"/><path class="cls-4" d="M296.55,257.1a48.73,48.73,0,1,1-48.73-48.73,48.73,48.73,0,0,1,48.73,48.73"/></g></g></svg>